<svg id="Groupe_1" data-name="Groupe 1" xmlns="http://www.w3.org/2000/svg" width="1024" height="1024" viewBox="0 0 1024 1024">
  <metadata><?xpacket begin="﻿" id="W5M0MpCehiHzreSzNTczkc9d"?>
<x:xmpmeta xmlns:x="adobe:ns:meta/" x:xmptk="Adobe XMP Core 5.6-c138 79.159824, 2016/09/14-01:09:01        ">
   <rdf:RDF xmlns:rdf="http://www.w3.org/1999/02/22-rdf-syntax-ns#">
      <rdf:Description rdf:about=""/>
   </rdf:RDF>
</x:xmpmeta>
                                                                                                    
                                                                                                    
                                                                                                    
                                                                                                    
                                                                                                    
                                                                                                    
                                                                                                    
                                                                                                    
                                                                                                    
                                                                                                    
                                                                                                    
                                                                                                    
                                                                                                    
                                                                                                    
                                                                                                    
                                                                                                    
                                                                                                    
                                                                                                    
                                                                                                    
                                                                                                    
                           
<?xpacket end="w"?></metadata>
<defs>
    <style>
      .cls-1 {
        fill: #fafafa;
        fill-rule: evenodd;
      }
    </style>
  </defs>
  <path id="dot_in_p" data-name="dot in p" class="cls-1" d="M520.294,322.194h86.568a40,40,0,0,1,40,40V465.96a40,40,0,0,1-40,40H520.294a40,40,0,0,1-40-40V362.194A40,40,0,0,1,520.294,322.194Z"/>
  <path id="p_barre" data-name="p barre" class="cls-1" d="M258.585,93.634H411.369V947H258.585V93.634Z"/>
  <path id="p_round" data-name="p round" class="cls-1" d="M535.625,81H693.77a130,130,0,0,1,130,130V621.748a130,130,0,0,1-130,130H535.625a130,130,0,0,1-130-130V211A130,130,0,0,1,535.625,81Zm-11.81,109.111h82.973a109,109,0,0,1,109,109V534.785a109,109,0,0,1-109,109H523.815a109,109,0,0,1-109-109V299.111A109,109,0,0,1,523.815,190.111Z"/>
</svg>
